<svg version="1.1" viewBox="0.0 0.0 669.6325459317585 429.32020997375326" fill="none" stroke="none" stroke-linecap="square" stroke-miterlimit="10" xmlns:xlink="http://www.w3.org/1999/xlink" xmlns="http://www.w3.org/2000/svg"><clipPath id="p.0"><path d="m0 0l669.63257 0l0 429.32022l-669.63257 0l0 -429.32022z" clip-rule="nonzero"/></clipPath><g clip-path="url(#p.0)"><path fill="#000000" fill-opacity="0.0" d="m0 0l669.63257 0l0 429.32022l-669.63257 0z" fill-rule="evenodd"/><path fill="#000000" fill-opacity="0.0" d="m563.24146 126.362206l-148.50394 81.826775" fill-rule="evenodd"/><path stroke="#000000" stroke-width="1.0" stroke-linejoin="round" stroke-linecap="butt" d="m563.24146 126.362206l-148.50394 81.826775" fill-rule="evenodd"/><path fill="#000000" fill-opacity="0.0" d="m566.48553 300.25198l-151.74802 -92.063" fill-rule="evenodd"/><path stroke="#000000" stroke-width="1.0" stroke-linejoin="round" stroke-linecap="butt" d="m566.48553 300.25198l-151.74802 -92.063" fill-rule="evenodd"/><path fill="#000000" fill-opacity="0.0" d="m309.5643 251.6693l-127.02362 90.99211" fill-rule="evenodd"/><path stroke="#000000" stroke-width="1.0" stroke-linejoin="round" stroke-linecap="butt" stroke-dasharray="1.0,3.0" d="m309.5643 251.6693l-127.02362 90.99211" fill-rule="evenodd"/><path fill="#6d9eeb" d="m15.666667 299.1916l123.385826 0l43.480316 43.480316l-43.480316 43.480316l-123.385826 0z" fill-rule="evenodd"/><path stroke="#000000" stroke-width="1.0" stroke-linejoin="round" stroke-linecap="butt" d="m15.666667 299.1916l123.385826 0l43.480316 43.480316l-43.480316 43.480316l-123.385826 0z" fill-rule="evenodd"/><path fill="#6d9eeb" d="m247.87138 164.70866l123.38585 0l43.480286 43.480316l-43.480286 43.480316l-123.38585 0l43.48033 -43.480316z" fill-rule="evenodd"/><path stroke="#000000" stroke-width="1.0" stroke-linejoin="round" stroke-linecap="butt" d="m247.87138 164.70866l123.38585 0l43.480286 43.480316l-43.480286 43.480316l-123.38585 0l43.48033 -43.480316z" fill-rule="evenodd"/><path fill="#6d9eeb" d="m476.2861 39.41995l166.87094 0l0 86.95976l-166.87094 0l54.858917 -44.222214z" fill-rule="evenodd"/><path stroke="#000000" stroke-width="1.0" stroke-linejoin="round" stroke-linecap="butt" d="m476.2861 39.41995l166.87094 0l0 86.95976l-166.87094 0l54.858917 -44.222214z" fill-rule="evenodd"/><path fill="#6d9eeb" d="m476.2861 299.1916l166.87094 0l0 86.95978l-166.87094 0l54.858917 -44.22223z" fill-rule="evenodd"/><path stroke="#000000" stroke-width="1.0" stroke-linejoin="round" stroke-linecap="butt" d="m476.2861 299.1916l166.87094 0l0 86.95978l-166.87094 0l54.858917 -44.22223z" fill-rule="evenodd"/><path fill="#000000" fill-opacity="0.0" d="m31.939632 325.71127l108.81889 0l0 33.921265l-108.81889 0z" fill-rule="evenodd"/><path fill="#ffffff" d="m41.799007 339.1688l0 -1.53125l1.65625 0l0 1.53125l-1.65625 0zm0 7.0625l0 -6.21875l1.65625 0l0 6.21875l-1.65625 0zm8.990234 0l-1.640625 0l0 -3.171875q0 -1.015625 -0.109375 -1.3125q-0.09375 -0.296875 -0.34375 -0.453125q-0.234375 -0.171875 -0.5625 -0.171875q-0.4375 0 -0.78125 0.234375q-0.328125 0.234375 -0.453125 0.625q-0.125 0.390625 -0.125 1.4375l0 2.8125l-1.65625 0l0 -6.21875l1.53125 0l0 0.90625q0.8125 -1.046875 2.0625 -1.046875q0.53125 0 0.984375 0.203125q0.453125 0.1875 0.6875 0.5q0.234375 0.296875 0.3125 0.6875q0.09375 0.375 0.09375 1.09375l0 3.875zm1.6269531 -6.21875l1.53125 0l0 0.90625q0.3125 -0.46875 0.8125 -0.75q0.515625 -0.296875 1.140625 -0.296875q1.078125 0 1.828125 0.84375q0.765625 0.84375 0.765625 2.375q0 1.546875 -0.765625 2.421875q-0.765625 0.859375 -1.84375 0.859375q-0.515625 0 -0.9375 -0.203125q-0.421875 -0.203125 -0.875 -0.703125l0 3.140625l-1.65625 0l0 -8.59375zm1.625 3.0q0 1.046875 0.421875 1.546875q0.421875 0.5 1.015625 0.5q0.578125 0 0.953125 -0.453125q0.375 -0.46875 0.375 -1.515625q0 -0.96875 -0.390625 -1.4375q-0.390625 -0.484375 -0.96875 -0.484375q-0.609375 0 -1.015625 0.46875q-0.390625 0.46875 -0.390625 1.375zm9.845703 3.21875l0 -0.9375q-0.328125 0.5 -0.890625 0.796875q-0.546875 0.28125 -1.171875 0.28125q-0.625 0 -1.125 -0.265625q-0.5 -0.28125 -0.71875 -0.78125q-0.21875 -0.5 -0.21875 -1.375l0 -3.9375l1.640625 0l0 2.859375q0 1.3125 0.09375 1.609375q0.09375 0.296875 0.328125 0.46875q0.25 0.171875 0.609375 0.171875q0.421875 0 0.75 -0.234375q0.34375 -0.234375 0.46875 -0.578125q0.125 -0.34375 0.125 -1.671875l0 -2.625l1.6406288 0l0 6.21875l-1.5312538 0zm6.095707 -6.21875l0 1.3125l-1.125 0l0 2.5q0 0.765625 0.03125 0.890625q0.03125 0.125 0.140625 0.21875q0.125 0.078125 0.28125 0.078125q0.234375 0 0.65625 -0.171875l0.140625 1.28125q-0.5625 0.25 -1.296875 0.25q-0.4375 0 -0.796875 -0.140625q-0.359375 -0.15625 -0.53125 -0.390625q-0.15625 -0.25 -0.234375 -0.640625q-0.046875 -0.296875 -0.046875 -1.171875l0 -2.703125l-0.75 0l0 -1.3125l0.75 0l0 -1.234375l1.65625 -0.96875l0 2.203125l1.125 0zm3.1367188 4.953125l0 -2.46875q-1.140625 -0.328125 -1.6875 -0.984375q-0.53125 -0.671875 -0.53125 -1.609375q0 -0.96875 0.609375 -1.625q0.609375 -0.65625 1.609375 -0.75l0 -0.578125l0.859375 0l0 0.578125q0.921875 0.109375 1.46875 0.640625q0.5625 0.515625 0.71875 1.40625l-1.484375 0.1875q-0.140625 -0.6875 -0.703125 -0.9375l0 2.296875q1.40625 0.375 1.90625 0.984375q0.515625 0.609375 0.515625 1.546875q0 1.0625 -0.640625 1.796875q-0.640625 0.71875 -1.78125 0.890625l0 1.09375l-0.859375 0l0 -1.0625q-1.0 -0.125 -1.640625 -0.75q-0.625 -0.640625 -0.8125 -1.796875l1.53125 -0.171875q0.09375 0.46875 0.34375 0.8125q0.265625 0.34375 0.578125 0.5zm0 -6.15625q-0.34375 0.109375 -0.546875 0.390625q-0.203125 0.28125 -0.203125 0.625q0 0.3125 0.1875 0.578125q0.1875 0.265625 0.5625 0.4375l0 -2.03125zm0.859375 6.234375q0.4375 -0.078125 0.703125 -0.40625q0.28125 -0.328125 0.28125 -0.765625q0 -0.390625 -0.234375 -0.671875q-0.21875 -0.296875 -0.75 -0.4375l0 2.28125zm6.673828 -5.03125l0 1.3125l-1.125 0l0 2.5q0 0.765625 0.03125 0.890625q0.03125 0.125 0.140625 0.21875q0.125 0.078125 0.28125 0.078125q0.234375 0 0.65625 -0.171875l0.140625 1.28125q-0.5625 0.25 -1.296875 0.25q-0.4375 0 -0.796875 -0.140625q-0.359375 -0.15625 -0.53125 -0.390625q-0.15625 -0.25 -0.234375 -0.640625q-0.046875 -0.296875 -0.046875 -1.171875l0 -2.703125l-0.75 0l0 -1.3125l0.75 0l0 -1.234375l1.65625 -0.96875l0 2.203125l1.125 0zm2.3710938 1.890625l-1.5 -0.265625q0.25 -0.90625 0.859375 -1.328125q0.625 -0.4375 1.84375 -0.4375q1.09375 0 1.625 0.265625q0.546875 0.25 0.765625 0.65625q0.21875 0.390625 0.21875 1.46875l-0.015625 1.921875q0 0.828125 0.078125 1.21875q0.078125 0.375 0.296875 0.828125l-1.625 0q-0.0625 -0.171875 -0.15625 -0.484375q-0.046875 -0.15625 -0.0625 -0.203125q-0.421875 0.421875 -0.90625 0.625q-0.46875 0.203125 -1.015625 0.203125q-0.96875 0 -1.53125 -0.515625q-0.546875 -0.53125 -0.546875 -1.328125q0 -0.53125 0.25 -0.9375q0.265625 -0.40625 0.71875 -0.625q0.453125 -0.234375 1.3125 -0.390625q1.140625 -0.21875 1.59375 -0.40625l0 -0.15625q0 -0.484375 -0.234375 -0.6875q-0.234375 -0.203125 -0.890625 -0.203125q-0.4375 0 -0.6875 0.171875q-0.234375 0.171875 -0.390625 0.609375zm2.203125 1.34375q-0.3125 0.09375 -1.0 0.25q-0.6875 0.140625 -0.90625 0.28125q-0.3125 0.234375 -0.3125 0.578125q0 0.34375 0.25 0.609375q0.265625 0.25 0.65625 0.25q0.453125 0 0.859375 -0.296875q0.296875 -0.21875 0.390625 -0.546875q0.0625 -0.203125 0.0625 -0.796875l0 -0.328125zm3.1113281 -3.234375l1.515625 0l0 0.84375q0.828125 -0.984375 1.953125 -0.984375q0.59375 0 1.03125 0.25q0.4375 0.234375 0.71875 0.734375q0.40625 -0.5 0.875 -0.734375q0.484375 -0.25 1.03125 -0.25q0.671875 0 1.140625 0.28125q0.484375 0.265625 0.71875 0.8125q0.171875 0.390625 0.171875 1.28125l0 3.984375l-1.640625 0l0 -3.5625q0 -0.921875 -0.171875 -1.1875q-0.234375 -0.359375 -0.703125 -0.359375q-0.34375 0 -0.65625 0.21875q-0.296875 0.203125 -0.4375 0.609375q-0.140625 0.40625 -0.140625 1.296875l0 2.984375l-1.640625 0l0 -3.40625q0 -0.90625 -0.09375 -1.171875q-0.078125 -0.265625 -0.265625 -0.390625q-0.1875 -0.140625 -0.5 -0.140625q-0.375 0 -0.6875 0.21875q-0.296875 0.203125 -0.4375 0.59375q-0.125 0.375 -0.125 1.265625l0 3.03125l-1.65625 0l0 -6.21875zm12.029297 1.890625l-1.5 -0.265625q0.25 -0.90625 0.859375 -1.328125q0.625 -0.4375 1.84375 -0.4375q1.09375 0 1.625 0.265625q0.546875 0.25 0.765625 0.65625q0.21875 0.390625 0.21875 1.46875l-0.015625 1.921875q0 0.828125 0.078125 1.21875q0.078125 0.375 0.296875 0.828125l-1.625 0q-0.0625 -0.171875 -0.15625 -0.484375q-0.046875 -0.15625 -0.0625 -0.203125q-0.421875 0.421875 -0.90625 0.625q-0.46875 0.203125 -1.015625 0.203125q-0.96875 0 -1.53125 -0.515625q-0.546875 -0.53125 -0.546875 -1.328125q0 -0.53125 0.25 -0.9375q0.265625 -0.40625 0.71875 -0.625q0.453125 -0.234375 1.3125 -0.390625q1.140625 -0.21875 1.59375 -0.40625l0 -0.15625q0 -0.484375 -0.234375 -0.6875q-0.234375 -0.203125 -0.890625 -0.203125q-0.4375 0 -0.6875 0.171875q-0.234375 0.171875 -0.390625 0.609375zm2.203125 1.34375q-0.3125 0.09375 -1.0 0.25q-0.6875 0.140625 -0.90625 0.28125q-0.3125 0.234375 -0.3125 0.578125q0 0.34375 0.25 0.609375q0.265625 0.25 0.65625 0.25q0.453125 0 0.859375 -0.296875q0.296875 -0.21875 0.390625 -0.546875q0.0625 -0.203125 0.0625 -0.796875l0 -0.328125zm8.892578 2.984375l-1.640625 0l0 -3.171875q0 -1.015625 -0.109375 -1.3125q-0.09375 -0.296875 -0.34375 -0.453125q-0.234375 -0.171875 -0.5625 -0.171875q-0.4375 0 -0.78125 0.234375q-0.328125 0.234375 -0.453125 0.625q-0.125 0.390625 -0.125 1.4375l0 2.8125l-1.65625 0l0 -6.21875l1.53125 0l0 0.90625q0.8125 -1.046875 2.0625 -1.046875q0.53125 0 0.984375 0.203125q0.453125 0.1875 0.6875 0.5q0.234375 0.296875 0.3125 0.6875q0.09375 0.375 0.09375 1.09375l0 3.875zm3.3144531 -8.59375l0 3.15625q0.796875 -0.921875 1.90625 -0.921875q0.5625 0 1.015625 0.21875q0.46875 0.203125 0.703125 0.53125q0.234375 0.328125 0.3125 0.734375q0.078125 0.390625 0.078125 1.21875l0 3.65625l-1.640625 0l0 -3.28125q0 -0.984375 -0.09375 -1.25q-0.09375 -0.265625 -0.328125 -0.421875q-0.234375 -0.15625 -0.59375 -0.15625q-0.40625 0 -0.734375 0.203125q-0.328125 0.203125 -0.484375 0.609375q-0.140625 0.390625 -0.140625 1.171875l0 3.125l-1.640625 0l0 -8.59375l1.640625 0zm5.314453 5.390625q0 -0.8125 0.40625 -1.578125q0.40625 -0.78125 1.140625 -1.171875q0.734375 -0.40625 1.65625 -0.40625q1.40625 0 2.3125 0.921875q0.90625 0.90625 0.90625 2.3125q0 1.40625 -0.921875 2.34375q-0.90625 0.921875 -2.28125 0.921875q-0.859375 0 -1.640625 -0.390625q-0.765625 -0.390625 -1.171875 -1.125q-0.40625 -0.75 -0.40625 -1.828125zm1.6875 0.09375q0 0.921875 0.4375 1.421875q0.4375 0.484375 1.078125 0.484375q0.65625 0 1.078125 -0.484375q0.4375 -0.5 0.4375 -1.4375q0 -0.90625 -0.4375 -1.390625q-0.421875 -0.5 -1.078125 -0.5q-0.640625 0 -1.078125 0.5q-0.4375 0.484375 -0.4375 1.40625z" fill-rule="nonzero"/><path fill="#000000" fill-opacity="0.0" d="m298.91077 191.22835l80.188965 0l0 33.921265l-80.188965 0z" fill-rule="evenodd"/><path fill="#ffffff" d="m310.00452 207.42023l-1.5 -0.265625q0.25 -0.90625 0.859375 -1.328125q0.625 -0.4375 1.84375 -0.4375q1.09375 0 1.625 0.265625q0.546875 0.25 0.765625 0.65625q0.21875 0.390625 0.21875 1.46875l-0.015625 1.921875q0 0.828125 0.078125 1.21875q0.078125 0.375 0.296875 0.828125l-1.625 0q-0.0625 -0.171875 -0.15625 -0.484375q-0.046875 -0.15625 -0.0625 -0.203125q-0.421875 0.421875 -0.90625 0.625q-0.46875 0.203125 -1.015625 0.203125q-0.96875 0 -1.53125 -0.515625q-0.546875 -0.53125 -0.546875 -1.328125q0 -0.53125 0.25 -0.9375q0.265625 -0.40625 0.71875 -0.625q0.453125 -0.234375 1.3125 -0.390625q1.140625 -0.21875 1.59375 -0.40625l0 -0.15625q0 -0.484375 -0.234375 -0.6875q-0.234375 -0.203125 -0.890625 -0.203125q-0.4375 0 -0.6875 0.171875q-0.234375 0.171875 -0.390625 0.609375zm2.203125 1.34375q-0.3125 0.09375 -1.0 0.25q-0.6875 0.140625 -0.90625 0.28125q-0.3125 0.234375 -0.3125 0.578125q0 0.34375 0.25 0.609375q0.265625 0.25 0.65625 0.25q0.453125 0 0.859375 -0.296875q0.296875 -0.21875 0.390625 -0.546875q0.0625 -0.203125 0.0625 -0.796875l0 -0.328125zm3.1113281 -3.234375l1.515625 0l0 0.84375q0.828125 -0.984375 1.953125 -0.984375q0.59375 0 1.03125 0.25q0.4375 0.234375 0.71875 0.734375q0.40625 -0.5 0.875 -0.734375q0.484375 -0.25 1.03125 -0.25q0.671875 0 1.140625 0.28125q0.484375 0.265625 0.71875 0.8125q0.171875 0.390625 0.171875 1.28125l0 3.984375l-1.640625 0l0 -3.5625q0 -0.921875 -0.171875 -1.1875q-0.234375 -0.359375 -0.703125 -0.359375q-0.34375 0 -0.65625 0.21875q-0.296875 0.203125 -0.4375 0.609375q-0.140625 0.40625 -0.140625 1.296875l0 2.984375l-1.640625 0l0 -3.40625q0 -0.90625 -0.09375 -1.171875q-0.078125 -0.265625 -0.265625 -0.390625q-0.1875 -0.140625 -0.5 -0.140625q-0.375 0 -0.6875 0.21875q-0.296875 0.203125 -0.4375 0.59375q-0.125 0.375 -0.125 1.265625l0 3.03125l-1.65625 0l0 -6.21875zm10.419922 3.015625q0 -0.8125 0.40625 -1.578125q0.40625 -0.78125 1.140625 -1.171875q0.734375 -0.40625 1.65625 -0.40625q1.40625 0 2.3125 0.921875q0.90625 0.90625 0.90625 2.3125q0 1.40625 -0.921875 2.34375q-0.90625 0.921875 -2.28125 0.921875q-0.859375 0 -1.640625 -0.390625q-0.765625 -0.390625 -1.171875 -1.125q-0.40625 -0.75 -0.40625 -1.828125zm1.6875 0.09375q0 0.921875 0.4375 1.421875q0.4375 0.484375 1.078125 0.484375q0.65625 0 1.078125 -0.484375q0.4375 -0.5 0.4375 -1.4375q0 -0.90625 -0.4375 -1.390625q-0.421875 -0.5 -1.078125 -0.5q-0.640625 0 -1.078125 0.5q-0.4375 0.484375 -0.4375 1.40625zm5.439453 1.328125l1.65625 -0.25q0.109375 0.484375 0.421875 0.734375q0.328125 0.25 0.90625 0.25q0.640625 0 0.953125 -0.234375q0.21875 -0.171875 0.21875 -0.4375q0 -0.1875 -0.109375 -0.3125q-0.125 -0.125 -0.546875 -0.21875q-2.0 -0.4375 -2.53125 -0.796875q-0.734375 -0.515625 -0.734375 -1.40625q0 -0.8125 0.625 -1.359375q0.640625 -0.546875 1.984375 -0.546875q1.28125 0 1.90625 0.421875q0.625 0.40625 0.859375 1.21875l-1.5625 0.28125q-0.09375 -0.359375 -0.375 -0.546875q-0.28125 -0.203125 -0.796875 -0.203125q-0.640625 0 -0.921875 0.1875q-0.1875 0.125 -0.1875 0.328125q0 0.1875 0.15625 0.3125q0.21875 0.15625 1.53125 0.453125q1.328125 0.296875 1.84375 0.734375q0.515625 0.4375 0.515625 1.21875q0 0.859375 -0.71875 1.484375q-0.703125 0.609375 -2.109375 0.609375q-1.265625 0 -2.015625 -0.515625q-0.734375 -0.515625 -0.96875 -1.40625zm10.111328 -4.4375l0 1.3125l-1.125 0l0 2.5q0 0.765625 0.03125 0.890625q0.03125 0.125 0.140625 0.21875q0.125 0.078125 0.28125 0.078125q0.234375 0 0.65625 -0.171875l0.140625 1.28125q-0.5625 0.25 -1.296875 0.25q-0.4375 0 -0.796875 -0.140625q-0.359375 -0.15625 -0.53125 -0.390625q-0.15625 -0.25 -0.234375 -0.640625q-0.046875 -0.296875 -0.046875 -1.171875l0 -2.703125l-0.75 0l0 -1.3125l0.75 0l0 -1.234375l1.65625 -0.96875l0 2.203125l1.125 0zm2.7148438 6.21875l-1.640625 0l0 -6.21875l1.53125 0l0 0.875q0.390625 -0.625 0.703125 -0.8125q0.3125 -0.203125 0.703125 -0.203125q0.5625 0 1.09375 0.3125l-0.515625 1.421875q-0.421875 -0.265625 -0.765625 -0.265625q-0.359375 0 -0.59375 0.203125q-0.234375 0.1875 -0.375 0.6875q-0.140625 0.484375 -0.140625 2.078125l0 1.921875zm4.326172 -4.328125l-1.5 -0.265625q0.25 -0.90625 0.859375 -1.328125q0.625 -0.4375 1.84375 -0.4375q1.09375 0 1.625 0.265625q0.546875 0.25 0.765625 0.65625q0.21875 0.390625 0.21875 1.46875l-0.015625 1.921875q0 0.828125 0.078125 1.21875q0.078125 0.375 0.296875 0.828125l-1.625 0q-0.0625 -0.171875 -0.15625 -0.484375q-0.046875 -0.15625 -0.0625 -0.203125q-0.421875 0.421875 -0.90625 0.625q-0.46875 0.203125 -1.015625 0.203125q-0.96875 0 -1.53125 -0.515625q-0.546875 -0.53125 -0.546875 -1.328125q0 -0.53125 0.25 -0.9375q0.265625 -0.40625 0.71875 -0.625q0.453125 -0.234375 1.3125 -0.390625q1.140625 -0.21875 1.59375 -0.40625l0 -0.15625q0 -0.484375 -0.234375 -0.6875q-0.234375 -0.203125 -0.890625 -0.203125q-0.4375 0 -0.6875 0.171875q-0.234375 0.171875 -0.390625 0.609375zm2.203125 1.34375q-0.3125 0.09375 -1.0 0.25q-0.6875 0.140625 -0.90625 0.28125q-0.3125 0.234375 -0.3125 0.578125q0 0.34375 0.25 0.609375q0.265625 0.25 0.65625 0.25q0.453125 0 0.859375 -0.296875q0.296875 -0.21875 0.390625 -0.546875q0.0625 -0.203125 0.0625 -0.796875l0 -0.328125zm5.970703 5.515625l-1.125 0q-0.90625 -1.359375 -1.375 -2.8125q-0.46875 -1.46875 -0.46875 -2.828125q0 -1.703125 0.578125 -3.203125q0.515625 -1.3125 1.28125 -2.421875l1.125 0q-0.796875 1.765625 -1.109375 3.015625q-0.296875 1.25 -0.296875 2.640625q0 0.96875 0.171875 1.984375q0.1875 1.0 0.5 1.90625q0.203125 0.59375 0.71875 1.71875zm0.80859375 0q0.484375 -1.046875 0.6875 -1.609375q0.203125 -0.546875 0.359375 -1.265625q0.171875 -0.734375 0.25 -1.390625q0.09375 -0.65625 0.09375 -1.34375q0 -1.390625 -0.296875 -2.640625q-0.296875 -1.25 -1.109375 -3.015625l1.125 0q0.875 1.25 1.359375 2.671875q0.5 1.40625 0.5 2.859375q0 1.234375 -0.390625 2.625q-0.4375 1.578125 -1.4375 3.109375l-1.140625 0z" fill-rule="nonzero"/><path fill="#000000" fill-opacity="0.0" d="m541.89764 65.93964l91.02362 0l0 33.921257l-91.02362 0z" fill-rule="evenodd"/><path fill="#ffffff" d="m553.33514 86.45963l-1.640625 0l0 -6.21875l1.53125 0l0 0.875q0.390625 -0.625 0.703125 -0.8125q0.3125 -0.203125 0.703125 -0.203125q0.5625 0 1.09375 0.3125l-0.515625 1.421875q-0.421875 -0.265625 -0.765625 -0.265625q-0.359375 0 -0.59375 0.203125q-0.234375 0.1875 -0.375 0.6875q-0.140625 0.484375 -0.140625 2.078125l0 1.921875zm6.701172 -1.984375l1.640625 0.28125q-0.3125 0.90625 -1.0 1.375q-0.6875 0.46875 -1.703125 0.46875q-1.625 0 -2.40625 -1.0625q-0.625 -0.84375 -0.625 -2.140625q0 -1.546875 0.8125 -2.421875q0.8125 -0.875 2.046875 -0.875q1.390625 0 2.1875 0.921875q0.8125 0.90625 0.765625 2.796875l-4.125 0q0.03125 0.734375 0.40625 1.140625q0.375 0.40625 0.953125 0.40625q0.375 0 0.640625 -0.203125q0.265625 -0.21875 0.40625 -0.6875zm0.09375 -1.65625q-0.015625 -0.71875 -0.375 -1.09375q-0.34375 -0.375 -0.859375 -0.375q-0.53125 0 -0.890625 0.390625q-0.34375 0.40625 -0.34375 1.078125l2.46875 0zm8.626953 3.640625l-1.640625 0l0 -3.171875q0 -1.015625 -0.109375 -1.3125q-0.09375 -0.296875 -0.34375 -0.453125q-0.234375 -0.171875 -0.5625 -0.171875q-0.4375 0 -0.78125 0.234375q-0.328125 0.234375 -0.453125 0.625q-0.125 0.390625 -0.125 1.4375l0 2.8125l-1.65625 0l0 -6.21875l1.53125 0l0 0.90625q0.8125 -1.046875 2.0625 -1.046875q0.53125 0 0.984375 0.203125q0.453125 0.1875 0.6875 0.5q0.234375 0.296875 0.3125 0.6875q0.09375 0.375 0.09375 1.09375l0 3.875zm7.376953 0l-1.515625 0l0 -0.921875q-0.390625 0.546875 -0.90625 0.8125q-0.515625 0.25 -1.046875 0.25q-1.078125 0 -1.84375 -0.859375q-0.75 -0.875 -0.75 -2.421875q0 -1.578125 0.734375 -2.390625q0.75 -0.828125 1.890625 -0.828125q1.03125 0 1.796875 0.859375l0 -3.09375l1.640625 0l0 8.59375zm-4.390625 -3.25q0 1.0 0.28125 1.4375q0.390625 0.65625 1.109375 0.65625q0.5625 0 0.953125 -0.484375q0.40625 -0.484375 0.40625 -1.453125q0 -1.0625 -0.390625 -1.53125q-0.375 -0.484375 -0.984375 -0.484375q-0.578125 0 -0.984375 0.46875q-0.390625 0.46875 -0.390625 1.390625zm9.626953 1.265625l1.640625 0.28125q-0.3125 0.90625 -1.0 1.375q-0.6875 0.46875 -1.703125 0.46875q-1.625 0 -2.40625 -1.0625q-0.625 -0.84375 -0.625 -2.140625q0 -1.546875 0.8125 -2.421875q0.8125 -0.875 2.046875 -0.875q1.390625 0 2.1875 0.921875q0.8125 0.90625 0.765625 2.796875l-4.125 0q0.03125 0.734375 0.40625 1.140625q0.375 0.40625 0.953125 0.40625q0.375 0 0.640625 -0.203125q0.265625 -0.21875 0.40625 -0.6875zm0.09375 -1.65625q-0.015625 -0.71875 -0.375 -1.09375q-0.34375 -0.375 -0.859375 -0.375q-0.53125 0 -0.890625 0.390625q-0.34375 0.40625 -0.34375 1.078125l2.46875 0zm4.548828 3.640625l-1.640625 0l0 -6.21875l1.53125 0l0 0.875q0.390625 -0.625 0.703125 -0.8125q0.3125 -0.203125 0.703125 -0.203125q0.5625 0 1.09375 0.3125l-0.515625 1.421875q-0.421875 -0.265625 -0.765625 -0.265625q-0.359375 0 -0.59375 0.203125q-0.234375 0.1875 -0.375 0.6875q-0.140625 0.484375 -0.140625 2.078125l0 1.921875zm3.1074219 0l0 -8.59375l2.78125 0q1.578125 0 2.0625 0.125q0.734375 0.203125 1.234375 0.859375q0.5 0.640625 0.5 1.65625q0 0.796875 -0.296875 1.34375q-0.28125 0.53125 -0.71875 0.84375q-0.4375 0.296875 -0.90625 0.40625q-0.609375 0.125 -1.796875 0.125l-1.125 0l0 3.234375l-1.734375 0zm1.734375 -7.140625l0 2.4375l0.953125 0q1.015625 0 1.359375 -0.125q0.359375 -0.140625 0.546875 -0.421875q0.203125 -0.296875 0.203125 -0.671875q0 -0.46875 -0.28125 -0.765625q-0.28125 -0.3125 -0.703125 -0.390625q-0.296875 -0.0625 -1.234375 -0.0625l-0.84375 0zm6.2539062 7.140625l0 -8.59375l1.65625 0l0 8.59375l-1.65625 0zm2.9589844 -3.203125q0 -0.8125 0.40625 -1.578125q0.40625 -0.78125 1.140625 -1.171875q0.734375 -0.40625 1.65625 -0.40625q1.40625 0 2.3125 0.921875q0.90625 0.90625 0.90625 2.3125q0 1.40625 -0.921875 2.34375q-0.90625 0.921875 -2.28125 0.921875q-0.859375 0 -1.640625 -0.390625q-0.765625 -0.390625 -1.171875 -1.125q-0.40625 -0.75 -0.40625 -1.828125zm1.6875 0.09375q0 0.921875 0.4375 1.421875q0.4375 0.484375 1.078125 0.484375q0.65625 0 1.078125 -0.484375q0.4375 -0.5 0.4375 -1.4375q0 -0.90625 -0.4375 -1.390625q-0.421875 -0.5 -1.078125 -0.5q-0.640625 0 -1.078125 0.5q-0.4375 0.484375 -0.4375 1.40625zm8.876953 -3.109375l0 1.3125l-1.125 0l0 2.5q0 0.765625 0.03125 0.890625q0.03125 0.125 0.140625 0.21875q0.125 0.078125 0.28125 0.078125q0.234375 0 0.65625 -0.171875l0.140625 1.28125q-0.5625 0.25 -1.296875 0.25q-0.4375 0 -0.796875 -0.140625q-0.359375 -0.15625 -0.53125 -0.390625q-0.15625 -0.25 -0.234375 -0.640625q-0.046875 -0.296875 -0.046875 -1.171875l0 -2.703125l-0.75 0l0 -1.3125l0.75 0l0 -1.234375l1.65625 -0.96875l0 2.203125l1.125 0zm3.8710938 8.75l-1.125 0q-0.90625 -1.359375 -1.375 -2.8125q-0.46875 -1.46875 -0.46875 -2.828125q0 -1.703125 0.578125 -3.203125q0.515625 -1.3125 1.28125 -2.421875l1.125 0q-0.796875 1.765625 -1.109375 3.015625q-0.296875 1.25 -0.296875 2.640625q0 0.96875 0.171875 1.984375q0.1875 1.0 0.5 1.90625q0.203125 0.59375 0.71875 1.71875zm0.80859375 0q0.484375 -1.046875 0.6875 -1.609375q0.203125 -0.546875 0.359375 -1.265625q0.171875 -0.734375 0.25 -1.390625q0.09375 -0.65625 0.09375 -1.34375q0 -1.390625 -0.296875 -2.640625q-0.296875 -1.25 -1.109375 -3.015625l1.125 0q0.875 1.25 1.359375 2.671875q0.5 1.40625 0.5 2.859375q0 1.234375 -0.390625 2.625q-0.4375 1.578125 -1.4375 3.109375l-1.140625 0z" fill-rule="nonzero"/><path fill="#000000" fill-opacity="0.0" d="m541.89764 325.71127l91.02362 0l0 33.921265l-91.02362 0z" fill-rule="evenodd"/><path fill="#ffffff" d="m553.33514 346.2313l-1.640625 0l0 -6.21875l1.53125 0l0 0.875q0.390625 -0.625 0.703125 -0.8125q0.3125 -0.203125 0.703125 -0.203125q0.5625 0 1.09375 0.3125l-0.515625 1.421875q-0.421875 -0.265625 -0.765625 -0.265625q-0.359375 0 -0.59375 0.203125q-0.234375 0.1875 -0.375 0.6875q-0.140625 0.484375 -0.140625 2.078125l0 1.921875zm6.701172 -1.984375l1.640625 0.28125q-0.3125 0.90625 -1.0 1.375q-0.6875 0.46875 -1.703125 0.46875q-1.625 0 -2.40625 -1.0625q-0.625 -0.84375 -0.625 -2.140625q0 -1.546875 0.8125 -2.421875q0.8125 -0.875 2.046875 -0.875q1.390625 0 2.1875 0.921875q0.8125 0.90625 0.765625 2.796875l-4.125 0q0.03125 0.734375 0.40625 1.140625q0.375 0.40625 0.953125 0.40625q0.375 0 0.640625 -0.203125q0.265625 -0.21875 0.40625 -0.6875zm0.09375 -1.65625q-0.015625 -0.71875 -0.375 -1.09375q-0.34375 -0.375 -0.859375 -0.375q-0.53125 0 -0.890625 0.390625q-0.34375 0.40625 -0.34375 1.078125l2.46875 0zm8.626953 3.640625l-1.640625 0l0 -3.171875q0 -1.015625 -0.109375 -1.3125q-0.09375 -0.296875 -0.34375 -0.453125q-0.234375 -0.171875 -0.5625 -0.171875q-0.4375 0 -0.78125 0.234375q-0.328125 0.234375 -0.453125 0.625q-0.125 0.390625 -0.125 1.4375l0 2.8125l-1.65625 0l0 -6.21875l1.53125 0l0 0.90625q0.8125 -1.046875 2.0625 -1.046875q0.53125 0 0.984375 0.203125q0.453125 0.1875 0.6875 0.5q0.234375 0.296875 0.3125 0.6875q0.09375 0.375 0.09375 1.09375l0 3.875zm7.376953 0l-1.515625 0l0 -0.921875q-0.390625 0.546875 -0.90625 0.8125q-0.515625 0.25 -1.046875 0.25q-1.078125 0 -1.84375 -0.859375q-0.75 -0.875 -0.75 -2.421875q0 -1.578125 0.734375 -2.390625q0.75 -0.828125 1.890625 -0.828125q1.03125 0 1.796875 0.859375l0 -3.09375l1.640625 0l0 8.59375zm-4.390625 -3.25q0 1.0 0.28125 1.4375q0.390625 0.65625 1.109375 0.65625q0.5625 0 0.953125 -0.484375q0.40625 -0.484375 0.40625 -1.453125q0 -1.0625 -0.390625 -1.53125q-0.375 -0.484375 -0.984375 -0.484375q-0.578125 0 -0.984375 0.46875q-0.390625 0.46875 -0.390625 1.390625zm9.626953 1.265625l1.640625 0.28125q-0.3125 0.90625 -1.0 1.375q-0.6875 0.46875 -1.703125 0.46875q-1.625 0 -2.40625 -1.0625q-0.625 -0.84375 -0.625 -2.140625q0 -1.546875 0.8125 -2.421875q0.8125 -0.875 2.046875 -0.875q1.390625 0 2.1875 0.921875q0.8125 0.90625 0.765625 2.796875l-4.125 0q0.03125 0.734375 0.40625 1.140625q0.375 0.40625 0.953125 0.40625q0.375 0 0.640625 -0.203125q0.265625 -0.21875 0.40625 -0.6875zm0.09375 -1.65625q-0.015625 -0.71875 -0.375 -1.09375q-0.34375 -0.375 -0.859375 -0.375q-0.53125 0 -0.890625 0.390625q-0.34375 0.40625 -0.34375 1.078125l2.46875 0zm4.548828 3.640625l-1.640625 0l0 -6.21875l1.53125 0l0 0.875q0.390625 -0.625 0.703125 -0.8125q0.3125 -0.203125 0.703125 -0.203125q0.5625 0 1.09375 0.3125l-0.515625 1.421875q-0.421875 -0.265625 -0.765625 -0.265625q-0.359375 0 -0.59375 0.203125q-0.234375 0.1875 -0.375 0.6875q-0.140625 0.484375 -0.140625 2.078125l0 1.921875zm5.044922 0l0 -7.140625l-2.546875 0l0 -1.453125l6.8125 0l0 1.453125l-2.53125 0l0 7.140625l-1.734375 0zm8.095703 -1.984375l1.640625 0.28125q-0.3125 0.90625 -1.0 1.375q-0.6875 0.46875 -1.703125 0.46875q-1.625 0 -2.40625 -1.0625q-0.625 -0.84375 -0.625 -2.140625q0 -1.546875 0.8125 -2.421875q0.8125 -0.875 2.046875 -0.875q1.390625 0 2.1875 0.921875q0.8125 0.90625 0.765625 2.796875l-4.125 0q0.03125 0.734375 0.40625 1.140625q0.375 0.40625 0.953125 0.40625q0.375 0 0.640625 -0.203125q0.265625 -0.21875 0.40625 -0.6875zm0.09375 -1.65625q-0.015625 -0.71875 -0.375 -1.09375q-0.34375 -0.375 -0.859375 -0.375q-0.53125 0 -0.890625 0.390625q-0.34375 0.40625 -0.34375 1.078125l2.46875 0zm2.1894531 3.640625l2.234375 -3.203125l-2.140625 -3.015625l2.0 0l1.109375 1.703125l1.15625 -1.703125l1.9375 0l-2.109375 2.9375l2.296875 3.28125l-2.015625 0l-1.265625 -1.921875l-1.28125 1.921875l-1.921875 0zm10.314453 -6.21875l0 1.3125l-1.125 0l0 2.5q0 0.765625 0.03125 0.890625q0.03125 0.125 0.140625 0.21875q0.125 0.078125 0.28125 0.078125q0.234375 0 0.65625 -0.171875l0.140625 1.28125q-0.5625 0.25 -1.296875 0.25q-0.4375 0 -0.796875 -0.140625q-0.359375 -0.15625 -0.53125 -0.390625q-0.15625 -0.25 -0.234375 -0.640625q-0.046875 -0.296875 -0.046875 -1.171875l0 -2.703125l-0.75 0l0 -1.3125l0.75 0l0 -1.234375l1.65625 -0.96875l0 2.203125l1.125 0zm3.8710938 8.75l-1.125 0q-0.90625 -1.359375 -1.375 -2.8125q-0.46875 -1.46875 -0.46875 -2.828125q0 -1.703125 0.578125 -3.203125q0.515625 -1.3125 1.28125 -2.421875l1.125 0q-0.796875 1.765625 -1.109375 3.015625q-0.296875 1.25 -0.296875 2.640625q0 0.96875 0.171875 1.984375q0.1875 1.0 0.5 1.90625q0.203125 0.59375 0.71875 1.71875zm0.80859375 0q0.484375 -1.046875 0.6875 -1.609375q0.203125 -0.546875 0.359375 -1.265625q0.171875 -0.734375 0.25 -1.390625q0.09375 -0.65625 0.09375 -1.34375q0 -1.390625 -0.296875 -2.640625q-0.296875 -1.25 -1.109375 -3.015625l1.125 0q0.875 1.25 1.359375 2.671875q0.5 1.40625 0.5 2.859375q0 1.234375 -0.390625 2.625q-0.4375 1.578125 -1.4375 3.109375l-1.140625 0z" fill-rule="nonzero"/><path fill="#000000" fill-opacity="0.0" d="m291.3517 208.18898l-108.81891 0" fill-rule="evenodd"/><path stroke="#000000" stroke-width="1.0" stroke-linejoin="round" stroke-linecap="butt" d="m291.3517 208.18898l-108.81891 0" fill-rule="evenodd"/><path fill="#6d9eeb" d="m15.666667 164.70866l123.385826 0l43.480316 43.480316l-43.480316 43.480316l-123.385826 0z" fill-rule="evenodd"/><path stroke="#000000" stroke-width="1.0" stroke-linejoin="round" stroke-linecap="butt" d="m15.666667 164.70866l123.385826 0l43.480316 43.480316l-43.480316 43.480316l-123.385826 0z" fill-rule="evenodd"/><path fill="#000000" fill-opacity="0.0" d="m31.939632 191.22704l108.81889 0l0 33.921265l-108.81889 0z" fill-rule="evenodd"/><path fill="#ffffff" d="m41.799007 204.68454l0 -1.53125l1.65625 0l0 1.53125l-1.65625 0zm0 7.0625l0 -6.21875l1.65625 0l0 6.21875l-1.65625 0zm8.990234 0l-1.640625 0l0 -3.171875q0 -1.015625 -0.109375 -1.3125q-0.09375 -0.296875 -0.34375 -0.453125q-0.234375 -0.171875 -0.5625 -0.171875q-0.4375 0 -0.78125 0.234375q-0.328125 0.234375 -0.453125 0.625q-0.125 0.390625 -0.125 1.4375l0 2.8125l-1.65625 0l0 -6.21875l1.53125 0l0 0.90625q0.8125 -1.046875 2.0625 -1.046875q0.53125 0 0.984375 0.203125q0.453125 0.1875 0.6875 0.5q0.234375 0.296875 0.3125 0.6875q0.09375 0.375 0.09375 1.09375l0 3.875zm1.6269531 -6.21875l1.53125 0l0 0.90625q0.3125 -0.46875 0.8125 -0.75q0.515625 -0.296875 1.140625 -0.296875q1.078125 0 1.828125 0.84375q0.765625 0.84375 0.765625 2.375q0 1.546875 -0.765625 2.421875q-0.765625 0.859375 -1.84375 0.859375q-0.515625 0 -0.9375 -0.203125q-0.421875 -0.203125 -0.875 -0.703125l0 3.140625l-1.65625 0l0 -8.59375zm1.625 3.0q0 1.046875 0.421875 1.546875q0.421875 0.5 1.015625 0.5q0.578125 0 0.953125 -0.453125q0.375 -0.46875 0.375 -1.515625q0 -0.96875 -0.390625 -1.4375q-0.390625 -0.484375 -0.96875 -0.484375q-0.609375 0 -1.015625 0.46875q-0.390625 0.46875 -0.390625 1.375zm9.845703 3.21875l0 -0.9375q-0.328125 0.5 -0.890625 0.796875q-0.546875 0.28125 -1.171875 0.28125q-0.625 0 -1.125 -0.265625q-0.5 -0.28125 -0.71875 -0.78125q-0.21875 -0.5 -0.21875 -1.375l0 -3.9375l1.640625 0l0 2.859375q0 1.3125 0.09375 1.609375q0.09375 0.296875 0.328125 0.46875q0.25 0.171875 0.609375 0.171875q0.421875 0 0.75 -0.234375q0.34375 -0.234375 0.46875 -0.578125q0.125 -0.34375 0.125 -1.671875l0 -2.625l1.6406288 0l0 6.21875l-1.5312538 0zm6.095707 -6.21875l0 1.3125l-1.125 0l0 2.5q0 0.765625 0.03125 0.890625q0.03125 0.125 0.140625 0.21875q0.125 0.078125 0.28125 0.078125q0.234375 0 0.65625 -0.171875l0.140625 1.28125q-0.5625 0.25 -1.296875 0.25q-0.4375 0 -0.796875 -0.140625q-0.359375 -0.15625 -0.53125 -0.390625q-0.15625 -0.25 -0.234375 -0.640625q-0.046875 -0.296875 -0.046875 -1.171875l0 -2.703125l-0.75 0l0 -1.3125l0.75 0l0 -1.234375l1.65625 -0.96875l0 2.203125l1.125 0zm3.1367188 4.953125l0 -2.46875q-1.140625 -0.328125 -1.6875 -0.984375q-0.53125 -0.671875 -0.53125 -1.609375q0 -0.96875 0.609375 -1.625q0.609375 -0.65625 1.609375 -0.75l0 -0.578125l0.859375 0l0 0.578125q0.921875 0.109375 1.46875 0.640625q0.5625 0.515625 0.71875 1.40625l-1.484375 0.1875q-0.140625 -0.6875 -0.703125 -0.9375l0 2.296875q1.40625 0.375 1.90625 0.984375q0.515625 0.609375 0.515625 1.546875q0 1.0625 -0.640625 1.796875q-0.640625 0.71875 -1.78125 0.890625l0 1.09375l-0.859375 0l0 -1.0625q-1.0 -0.125 -1.640625 -0.75q-0.625 -0.640625 -0.8125 -1.796875l1.53125 -0.171875q0.09375 0.46875 0.34375 0.8125q0.265625 0.34375 0.578125 0.5zm0 -6.15625q-0.34375 0.109375 -0.546875 0.390625q-0.203125 0.28125 -0.203125 0.625q0 0.3125 0.1875 0.578125q0.1875 0.265625 0.5625 0.4375l0 -2.03125zm0.859375 6.234375q0.4375 -0.078125 0.703125 -0.40625q0.28125 -0.328125 0.28125 -0.765625q0 -0.390625 -0.234375 -0.671875q-0.21875 -0.296875 -0.75 -0.4375l0 2.28125zm3.7519531 1.1875l0 -8.59375l1.640625 0l0 3.09375q0.765625 -0.859375 1.8125 -0.859375q1.125 0 1.875 0.828125q0.75 0.8125 0.75 2.359375q0 1.59375 -0.765625 2.453125q-0.765625 0.859375 -1.84375 0.859375q-0.53125 0 -1.046875 -0.265625q-0.515625 -0.265625 -0.890625 -0.796875l0 0.921875l-1.53125 0zm1.625 -3.25q0 0.96875 0.3125 1.4375q0.421875 0.65625 1.140625 0.65625q0.53125 0 0.921875 -0.46875q0.390625 -0.46875 0.390625 -1.46875q0 -1.0625 -0.390625 -1.53125q-0.390625 -0.484375 -1.0 -0.484375q-0.578125 0 -0.984375 0.46875q-0.390625 0.453125 -0.390625 1.390625zm5.392578 0.046875q0 -0.8125 0.40625 -1.578125q0.40625 -0.78125 1.140625 -1.171875q0.734375 -0.40625 1.65625 -0.40625q1.40625 0 2.3125 0.921875q0.90625 0.90625 0.90625 2.3125q0 1.40625 -0.921875 2.34375q-0.90625 0.921875 -2.28125 0.921875q-0.859375 0 -1.640625 -0.390625q-0.765625 -0.390625 -1.171875 -1.125q-0.40625 -0.75 -0.40625 -1.828125zm1.6875 0.09375q0 0.921875 0.4375 1.421875q0.4375 0.484375 1.078125 0.484375q0.65625 0 1.078125 -0.484375q0.4375 -0.5 0.4375 -1.4375q0 -0.90625 -0.4375 -1.390625q-0.421875 -0.5 -1.078125 -0.5q-0.640625 0 -1.078125 0.5q-0.4375 0.484375 -0.4375 1.40625zm8.876953 -3.109375l0 1.3125l-1.125 0l0 2.5q0 0.765625 0.03125 0.890625q0.03125 0.125 0.140625 0.21875q0.125 0.078125 0.28125 0.078125q0.234375 0 0.65625 -0.171875l0.140625 1.28125q-0.5625 0.25 -1.296875 0.25q-0.4375 0 -0.796875 -0.140625q-0.359375 -0.15625 -0.53125 -0.390625q-0.15625 -0.25 -0.234375 -0.640625q-0.046875 -0.296875 -0.046875 -1.171875l0 -2.703125l-0.75 0l0 -1.3125l0.75 0l0 -1.234375l1.65625 -0.96875l0 2.203125l1.125 0zm2.3710938 1.890625l-1.5 -0.265625q0.25 -0.90625 0.859375 -1.328125q0.625 -0.4375 1.84375 -0.4375q1.09375 0 1.625 0.265625q0.546875 0.25 0.765625 0.65625q0.21875 0.390625 0.21875 1.46875l-0.015625 1.921875q0 0.828125 0.078125 1.21875q0.078125 0.375 0.296875 0.828125l-1.625 0q-0.0625 -0.171875 -0.15625 -0.484375q-0.046875 -0.15625 -0.0625 -0.203125q-0.421875 0.421875 -0.90625 0.625q-0.46875 0.203125 -1.015625 0.203125q-0.96875 0 -1.53125 -0.515625q-0.546875 -0.53125 -0.546875 -1.328125q0 -0.53125 0.25 -0.9375q0.265625 -0.40625 0.71875 -0.625q0.453125 -0.234375 1.3125 -0.390625q1.140625 -0.21875 1.59375 -0.40625l0 -0.15625q0 -0.484375 -0.234375 -0.6875q-0.234375 -0.203125 -0.890625 -0.203125q-0.4375 0 -0.6875 0.171875q-0.234375 0.171875 -0.390625 0.609375zm2.203125 1.34375q-0.3125 0.09375 -1.0 0.25q-0.6875 0.140625 -0.90625 0.28125q-0.3125 0.234375 -0.3125 0.578125q0 0.34375 0.25 0.609375q0.265625 0.25 0.65625 0.25q0.453125 0 0.859375 -0.296875q0.296875 -0.21875 0.390625 -0.546875q0.0625 -0.203125 0.0625 -0.796875l0 -0.328125zm2.8613281 -0.21875q0 -0.8125 0.40625 -1.578125q0.40625 -0.78125 1.140625 -1.171875q0.734375 -0.40625 1.65625 -0.40625q1.40625 0 2.3125 0.921875q0.90625 0.90625 0.90625 2.3125q0 1.40625 -0.921875 2.34375q-0.90625 0.921875 -2.28125 0.921875q-0.859375 0 -1.640625 -0.390625q-0.765625 -0.390625 -1.171875 -1.125q-0.40625 -0.75 -0.40625 -1.828125zm1.6875 0.09375q0 0.921875 0.4375 1.421875q0.4375 0.484375 1.078125 0.484375q0.65625 0 1.078125 -0.484375q0.4375 -0.5 0.4375 -1.4375q0 -0.90625 -0.4375 -1.390625q-0.421875 -0.5 -1.078125 -0.5q-0.640625 0 -1.078125 0.5q-0.4375 0.484375 -0.4375 1.40625z" fill-rule="nonzero"/></g></svg>